<svg width="45" height="52" viewBox="0 0 45 52" fill="none" xmlns="http://www.w3.org/2000/svg">
<path d="M16.6296 51.9834C14.8935 51.3029 13.168 49.9002 11.2496 50.3567C10.207 51.3321 9.63126 48.6211 9.72773 48.2065C10.7188 47.5933 13.1404 44.0716 10.1386 43.6721C8.39326 42.4916 6.28284 42.2666 5.25132 40.4708C3.76546 39.4906 1.81292 39.2527 0.0525923 38.2963C-0.167546 37.9933 0.269919 34.6423 2.00312 35.8768C3.28986 35.8713 4.60473 38.0502 5.06465 35.7168C6.06362 34.6719 5.42354 33.108 5.97455 32.2508C7.37808 32.2324 5.75581 29.3125 8.08641 29.4612C9.46677 29.1778 9.92338 28.0317 9.12402 27.1546C9.76324 25.244 10.33 22.9837 11.6633 21.5245C13.8195 21.5104 12.1495 23.995 13.988 24.0679C15.1167 25.0568 14.3364 21.3876 16.1809 22.8096C17.7174 23.6217 14.7878 24.6671 16.8953 25.0499C18.4984 24.4155 20.8388 23.0288 18.7699 21.2702C16.1655 19.9331 20.5556 14.7295 21.5322 17.7718C21.2053 19.2578 22.314 20.3415 23.2346 18.7103C24.1832 17.2919 26.3581 14.744 26.902 17.4824C27.5312 18.5573 29.1073 16.8393 29.3443 16.2548C28.5746 14.9498 29.776 13.0602 29.528 11.3254C30.9836 10.0755 27.8014 9.61709 29.4927 8.256C28.8954 6.91458 28.1224 4.92384 26.396 6.49225C24.1323 6.70673 22.956 1.96622 24.9379 1.23731C26.0958 1.84797 27.3611 0.755059 27.9441 1.82944C30.1419 1.41498 32.3184 0.878981 34.5157 0.485886C35.4904 0.0531908 36.6164 -0.477716 36.6506 0.806576C39.6962 -0.427248 39.6608 3.25106 40.0027 4.87719C42.0863 4.7411 39.5018 6.81213 40.9511 7.93055C42.4519 9.33428 39.7848 12.925 39.72 9.79788C38.6672 9.02873 35.693 9.69623 37.2572 11.2051C35.5207 12.5982 34.165 10.7897 34.8079 9.04991C33.2487 8.70444 30.1425 9.99648 31.2244 12.2212C29.9762 13.7103 30.0335 17.8044 33.0153 16.804C34.5814 18.1634 32.659 22.7252 34.3235 24.2127C35.2392 24.5932 37.9655 25.4798 36.3063 23.6484C36.557 20.8668 38.792 24.1064 38.8905 25.4271C39.5746 27.2062 41.1891 26.9283 42.0941 28.3225C41.6995 29.4166 44.152 29.0846 44.5472 30.2227C45.985 31.5028 43.4336 32.3556 44.602 33.9497C45.8582 35.899 42.3606 35.9817 42.7578 37.7645C41.3865 37.4944 43.2131 40.4112 41.1868 39.0936C39.7352 38.2124 39.1829 40.1146 37.6971 38.9103C36.8282 38.5237 35.2787 37.2186 36.1394 39.0589C36.4633 40.5749 37.7787 42.1695 36.7575 43.5803C35.4789 44.4391 31.6062 42.023 32.6059 44.6831C33.1054 46.7552 30.2665 44.22 29.1571 45.1932C26.8233 44.266 25.0175 46.0248 24.4202 48.1999C22.7852 50.046 19.778 48.9819 17.6567 50.5842C17.1033 50.7605 17.0131 52.1679 16.6295 51.9834H16.6296Z" fill="#FFDF6C"/>
</svg>
